<?xml version="1.0" standalone="no"?><!DOCTYPE svg PUBLIC "-//W3C//DTD SVG 1.1//EN" "http://www.w3.org/Graphics/SVG/1.1/DTD/svg11.dtd"><svg t="1648122853832" class="icon" viewBox="0 0 1024 1024" version="1.1" xmlns="http://www.w3.org/2000/svg" p-id="919" width="200" height="200" xmlns:xlink="http://www.w3.org/1999/xlink"><defs><style type="text/css">@font-face { font-family: feedback-iconfont; src: url("//at.alicdn.com/t/font_1031158_u69w8yhxdu.woff2?t=1630033759944") format("woff2"), url("//at.alicdn.com/t/font_1031158_u69w8yhxdu.woff?t=1630033759944") format("woff"), url("//at.alicdn.com/t/font_1031158_u69w8yhxdu.ttf?t=1630033759944") format("truetype"); }
</style></defs><path d="M512 128c-211.75 0-384 172.25-384 384s172.25 384 384 384 384-172.25 384-384-172.25-384-384-384z m0 708.92c-179.16 0-324.92-145.76-324.92-324.92S332.84 187.08 512 187.08 836.92 332.84 836.92 512 691.16 836.92 512 836.92z" p-id="920" fill="#dbdbdb"></path><path d="M630.15 482.46h-88.62v-88.62c0-16.31-13.23-29.54-29.54-29.54s-29.54 13.23-29.54 29.54v88.62h-88.62c-16.31 0-29.54 13.23-29.54 29.54s13.23 29.54 29.54 29.54h88.62v88.62c0 16.31 13.23 29.54 29.54 29.54s29.54-13.23 29.54-29.54v-88.62h88.62c16.31 0 29.54-13.23 29.54-29.54s-13.22-29.54-29.54-29.54z" p-id="921" fill="#dbdbdb"></path></svg>