<?xml version="1.0" standalone="no"?><!DOCTYPE svg PUBLIC "-//W3C//DTD SVG 1.1//EN" "http://www.w3.org/Graphics/SVG/1.1/DTD/svg11.dtd"><svg t="1648296227781" class="icon" viewBox="0 0 1024 1024" version="1.1" xmlns="http://www.w3.org/2000/svg" p-id="874" xmlns:xlink="http://www.w3.org/1999/xlink" width="200" height="200"><defs><style type="text/css">@font-face { font-family: feedback-iconfont; src: url("//at.alicdn.com/t/font_1031158_u69w8yhxdu.woff2?t=1630033759944") format("woff2"), url("//at.alicdn.com/t/font_1031158_u69w8yhxdu.woff?t=1630033759944") format("woff"), url("//at.alicdn.com/t/font_1031158_u69w8yhxdu.ttf?t=1630033759944") format("truetype"); }
</style></defs><path d="M327.402 280c17.674 0 32 14.327 32 32 0 17.496-14.041 31.713-31.47 31.996l-0.53 0.004h-91.337c-50.146 0-90.256 37.617-91.053 83.486L145 428.88V752.12c0 46.033 39.608 84.11 89.549 84.868l1.516 0.011h551.87c50.146 0 90.256-37.617 91.053-83.486l0.012-1.393V428.88c0-46.033-39.608-84.11-89.549-84.868l-1.516-0.011h-91.337c-17.674 0-32-14.327-32-32 0-17.496 14.041-31.713 31.47-32h91.867c84.429 0 153.668 64.957 155.044 146.406l0.021 2.473V752.12c0 81.777-68.395 147.552-152.511 148.86l-2.554 0.019h-551.87c-84.429 0-153.668-64.957-155.044-146.406L81 752.121V428.88c0-81.777 68.395-147.552 152.511-148.86l2.554-0.019h91.337z m403.465 335.617c9.6 14.839 5.354 34.65-9.484 44.25C654.518 703.127 584.527 725 512 725c-72.527 0-142.518-21.872-209.383-65.133-14.838-9.6-19.084-29.411-9.484-44.25 9.6-14.838 29.411-19.084 44.25-9.484C394.168 642.873 452.177 661 512 661c59.823 0 117.832-18.128 174.617-54.867 14.839-9.6 34.65-5.354 44.25 9.484zM512 126c17.673 0 32 14.327 32 32v306.509l81.137-81.136C637.51 371 657.491 370.877 670.015 383l0.377 0.372c12.372 12.371 12.495 32.353 0.371 44.877l-0.371 0.377-135.765 135.765c-12.371 12.372-32.353 12.495-44.877 0.371l-0.377-0.371-135.765-135.765c-12.497-12.496-12.497-32.758 0-45.254C365.98 371 385.962 370.877 398.486 383l0.377 0.372L480 464.509V158c0-17.673 14.327-32 32-32z" p-id="875"></path></svg>