<svg width="1024px" height="1024px" viewBox="0 0 1024 1024" version="1.1" xmlns="http://www.w3.org/2000/svg" xmlns:xlink="http://www.w3.org/1999/xlink">
    <title>暂无银行卡</title>
    <defs>
        <linearGradient x1="-13.5823507%" y1="50%" x2="50%" y2="47.2031971%" id="linearGradient-1">
            <stop stop-color="#98D6FA" offset="0%"></stop>
            <stop stop-color="#47B0F1" offset="100%"></stop>
        </linearGradient>
        <linearGradient x1="-9.33772794e-14%" y1="-3.10559006%" x2="100%" y2="-3.10559006%" id="linearGradient-2">
            <stop stop-color="#FFF5DE" offset="0%"></stop>
            <stop stop-color="#FBD2AC" offset="100%"></stop>
        </linearGradient>
        <linearGradient x1="-13.5823507%" y1="50%" x2="50%" y2="47.6284444%" id="linearGradient-3">
            <stop stop-color="#98D6FA" offset="0%"></stop>
            <stop stop-color="#47B0F1" offset="100%"></stop>
        </linearGradient>
        <linearGradient x1="-13.5823507%" y1="50%" x2="50%" y2="47.629463%" id="linearGradient-4">
            <stop stop-color="#98D6FA" offset="0%"></stop>
            <stop stop-color="#47B0F1" offset="100%"></stop>
        </linearGradient>
        <linearGradient x1="-13.5823507%" y1="50%" x2="50%" y2="47.6298828%" id="linearGradient-5">
            <stop stop-color="#98D6FA" offset="0%"></stop>
            <stop stop-color="#47B0F1" offset="100%"></stop>
        </linearGradient>
        <linearGradient x1="-13.5823507%" y1="50%" x2="50%" y2="43.4230204%" id="linearGradient-6">
            <stop stop-color="#98D6FA" offset="0%"></stop>
            <stop stop-color="#47B0F1" offset="100%"></stop>
        </linearGradient>
        <linearGradient x1="43.1398925%" y1="-6.4516129%" x2="60.3365636%" y2="0%" id="linearGradient-7">
            <stop stop-color="#AFDEF9" offset="3.15726754%"></stop>
            <stop stop-color="#7CC9F9" offset="100%"></stop>
        </linearGradient>
        <linearGradient x1="5.92025809%" y1="60.8571499%" x2="59.966368%" y2="37.0542203%" id="linearGradient-8">
            <stop stop-color="#98D6FA" offset="0%"></stop>
            <stop stop-color="#47B0F1" offset="100%"></stop>
        </linearGradient>
        <linearGradient x1="44.4926371%" y1="-6.4516129%" x2="58.2982966%" y2="0%" id="linearGradient-9">
            <stop stop-color="#AFDEF9" offset="3.15726754%"></stop>
            <stop stop-color="#7CC9F9" offset="100%"></stop>
        </linearGradient>
        <linearGradient x1="28.4038852%" y1="87.0084871%" x2="50%" y2="30.4810963%" id="linearGradient-10">
            <stop stop-color="#98D6FA" offset="0%"></stop>
            <stop stop-color="#47B0F1" offset="100%"></stop>
        </linearGradient>
        <linearGradient x1="80.1766865%" y1="78.1244605%" x2="40.1612594%" y2="1.20356745%" id="linearGradient-11">
            <stop stop-color="#98D6FA" offset="0%"></stop>
            <stop stop-color="#47B0F1" offset="100%"></stop>
        </linearGradient>
        <linearGradient x1="16.9636606%" y1="77.6033014%" x2="73.1106367%" y2="27.3104148%" id="linearGradient-12">
            <stop stop-color="#98D6FA" offset="0%"></stop>
            <stop stop-color="#47B0F1" offset="100%"></stop>
        </linearGradient>
        <linearGradient x1="0%" y1="66.879116%" x2="84.977599%" y2="36.1255675%" id="linearGradient-13">
            <stop stop-color="#98D6FA" offset="0%"></stop>
            <stop stop-color="#47B0F1" offset="100%"></stop>
        </linearGradient>
        <linearGradient x1="0%" y1="64.3617284%" x2="84.977599%" y2="38.1948302%" id="linearGradient-14">
            <stop stop-color="#98D6FA" offset="0%"></stop>
            <stop stop-color="#47B0F1" offset="100%"></stop>
        </linearGradient>
        <linearGradient x1="0%" y1="63.9354617%" x2="84.977599%" y2="38.5452163%" id="linearGradient-15">
            <stop stop-color="#98D6FA" offset="0%"></stop>
            <stop stop-color="#47B0F1" offset="100%"></stop>
        </linearGradient>
        <linearGradient x1="0%" y1="-11.7647059%" x2="100%" y2="-11.7647059%" id="linearGradient-16">
            <stop stop-color="#F5DDA7" offset="0%"></stop>
            <stop stop-color="#FA9A41" offset="100%"></stop>
        </linearGradient>
        <linearGradient x1="-7.86345382%" y1="0%" x2="59.6282093%" y2="65.6258257%" id="linearGradient-17">
            <stop stop-color="#98D6FA" offset="0%"></stop>
            <stop stop-color="#47B0F1" offset="100%"></stop>
        </linearGradient>
        <linearGradient x1="-21.2693754%" y1="44.7901458%" x2="82.8159007%" y2="69.3721366%" id="linearGradient-18">
            <stop stop-color="#98D6FA" offset="0%"></stop>
            <stop stop-color="#47B0F1" offset="100%"></stop>
        </linearGradient>
        <linearGradient x1="-22.2386252%" y1="34.7918858%" x2="75.2866387%" y2="55.5553846%" id="linearGradient-19">
            <stop stop-color="#98D6FA" offset="0%"></stop>
            <stop stop-color="#47B0F1" offset="100%"></stop>
        </linearGradient>
        <linearGradient x1="86.2750219%" y1="-2.80504909%" x2="-2.70574742e-12%" y2="-2.80504909%" id="linearGradient-20">
            <stop stop-color="#923629" offset="0%"></stop>
            <stop stop-color="#57352C" offset="30%"></stop>
            <stop stop-color="#42352C" offset="50%"></stop>
            <stop stop-color="#2C2422" offset="70%"></stop>
            <stop stop-color="#1D181C" offset="100%"></stop>
        </linearGradient>
        <linearGradient x1="86.2750219%" y1="-2.80504909%" x2="-2.70574742e-12%" y2="-2.80504909%" id="linearGradient-21">
            <stop stop-color="#923629" offset="0%"></stop>
            <stop stop-color="#57352C" offset="30%"></stop>
            <stop stop-color="#42352C" offset="50%"></stop>
            <stop stop-color="#2C2422" offset="70%"></stop>
            <stop stop-color="#1D181C" offset="100%"></stop>
        </linearGradient>
        <linearGradient x1="-16.8786815%" y1="29.2071985%" x2="126.871861%" y2="76.8814008%" id="linearGradient-22">
            <stop stop-color="#FFB859" offset="0%"></stop>
            <stop stop-color="#F97B61" offset="100%"></stop>
        </linearGradient>
        <linearGradient x1="19.466436%" y1="7.49141546%" x2="81.792241%" y2="107.502359%" id="linearGradient-23">
            <stop stop-color="#FFB859" offset="0%"></stop>
            <stop stop-color="#F97B61" offset="100%"></stop>
        </linearGradient>
        <linearGradient x1="100%" y1="-2.96987539%" x2="0.581465918%" y2="-2.96987539%" id="linearGradient-24">
            <stop stop-color="#F97B61" offset="0%"></stop>
            <stop stop-color="#FFB859" offset="100%"></stop>
        </linearGradient>
    </defs>
    <g id="暂无银行卡" stroke="none" stroke-width="1" fill="none" fill-rule="evenodd">
        <rect id="矩形" fill="#FFFFFF" opacity="0" x="0" y="0" width="1024" height="1024"></rect>
        <g id="背景" transform="translate(-10.925399, 125.000000)" fill-rule="nonzero">
            <path d="M87.7222308,456.766916 C80.0492274,423.67151 30.1022806,208.146339 171.323307,178.512529 C312.544333,148.878718 395.972947,183.393328 458.023811,123.051676 C520.074675,62.7100235 535.549093,72.613831 586.515601,76.6047879 C637.482109,80.5957448 696.551563,37.0388532 716.400276,23.9553401 C736.248989,10.871827 915.459428,-73.3066327 961.276528,178.512529 C968.517655,287.383698 974.535248,405.496594 923.838362,450.237259 C873.141476,494.977924 924.764528,535.151398 961.276528,539.615502 C997.788527,544.079607 944.206939,620.525811 859.876058,653.901824 C803.805493,679.056083 441.11611,751.180384 223.920174,677.040997 C119.040265,632.124956 95.3952341,489.862323 87.7222308,456.766916 Z" id="路径-58" fill="#47B0F1" opacity="0.05"></path>
            <path d="M168.925399,204 L168.925997,204.150149 C172.349059,204.845285 174.925399,207.871774 174.925399,211.5 L174.925399,212.5 C174.925399,216.642136 171.567535,220 167.425399,220 L88.4253989,220 C84.2832633,220 80.9253989,216.642136 80.9253989,212.5 L80.9253989,211.5 C80.9253989,207.357864 84.2832633,204 88.4253989,204 L119.925399,204 C123.710851,204 126.794498,200.995217 126.92134,197.24065 L126.925399,197 C126.925399,193.214548 123.920616,190.130901 120.166049,190.004059 L119.925399,190 L116.925399,190 L116.925805,189.850055 C113.502242,189.155307 110.925399,186.12858 110.925399,182.5 L110.925399,181.5 C110.925399,177.357864 114.283263,174 118.425399,174 L197.425399,174 C201.567535,174 204.925399,177.357864 204.925399,181.5 L204.925399,182.5 C204.925399,186.642136 201.567535,190 197.425399,190 L165.925399,190 C162.139947,190 159.0563,193.004783 158.929458,196.75935 L158.925399,197 C158.925399,200.785452 161.930182,203.869099 165.684749,203.995941 L165.925399,204 L168.925399,204 Z" id="形状结合" fill="url(#linearGradient-1)" opacity="0.100000001"></path>
            <path d="M868.925399,34 L868.925997,34.1501485 C872.349059,34.845285 874.925399,37.8717743 874.925399,41.5 L874.925399,42.5 C874.925399,46.6421356 871.567535,50 867.425399,50 L788.425399,50 C784.283263,50 780.925399,46.6421356 780.925399,42.5 L780.925399,41.5 C780.925399,37.3578644 784.283263,34 788.425399,34 L819.925399,34 C823.710851,34 826.794498,30.9952166 826.92134,27.2406498 L826.925399,27 C826.925399,23.2145483 823.920616,20.1309013 820.166049,20.004059 L819.925399,20 L816.925399,20 L816.925805,19.8500552 C813.502242,19.1553066 810.925399,16.1285803 810.925399,12.5 L810.925399,11.5 C810.925399,7.35786438 814.283263,4 818.425399,4 L897.425399,4 C901.567535,4 904.925399,7.35786438 904.925399,11.5 L904.925399,12.5 C904.925399,16.6421356 901.567535,20 897.425399,20 L865.925399,20 C862.139947,20 859.0563,23.0047834 858.929458,26.7593502 L858.925399,27 C858.925399,30.7854517 861.930182,33.8690987 865.684749,33.995941 L865.925399,34 L868.925399,34 Z" id="形状结合" fill="url(#linearGradient-1)" opacity="0.100000001"></path>
            <path d="M525.44197,587 C656.546603,587 774.70322,597.788312 857.228344,615.013362 C937.989145,615.660019 1002.9254,640.030791 1002.9254,670 C1002.9254,694.229977 960.47882,714.80045 901.536221,722.132354 C888.569443,725.884939 874.130297,729.433119 858.378638,732.745641 C858.740426,734.812004 858.925399,736.897944 858.925399,739 C858.925399,790.914766 746.101156,833 606.925399,833 C482.272656,833 378.758797,799.239705 358.512758,754.894193 C191.123049,742.128701 72.9253989,710.721174 72.9253989,674 C72.9253989,625.951227 275.292692,587 525.44197,587 Z" id="形状结合" fill="url(#linearGradient-2)"></path>
            <g id="大雁" transform="translate(660.099546, 36.907158)">
                <path d="M37.4312095,64.7423818 L37.4312095,64.6452119 C32.1058219,49.6073265 14.7356607,42.5306746 0,44.7153228 C10.9264423,37.9201286 28.9638433,36.1107574 37.4343421,46.5280447 L37.4343421,46.6185133 C45.8923106,36.2916945 64.0268216,38.0139479 74.8686842,44.8057914 C60.1455538,42.7216638 42.77226,49.7882636 37.4343421,64.7356804 L37.4312095,64.7423818 Z" id="路径" fill="url(#linearGradient-3)"></path>
                <path d="M120.860322,52.2014603 L120.860322,52.1377972 C117.160744,41.7138085 105.128501,36.8184542 94.9131541,38.3229128 C102.484602,33.6151969 114.989865,32.3586891 120.860322,39.5794206 L120.860322,39.6430837 C126.730779,32.4860153 139.292428,33.67886 146.80749,38.3865759 C136.592143,36.9424296 124.566165,41.8411347 120.860322,52.2014603 L120.860322,52.2014603 Z" id="路径" fill="url(#linearGradient-4)"></path>
                <path d="M86.0679846,17.7234613 L86.0679846,17.6597983 C82.3684066,7.23580958 70.3361632,2.34045519 60.1208168,3.84491386 C67.6922649,-0.862802022 80.197528,-2.11930982 86.0679846,5.10142166 L86.0679846,5.16508473 C91.9384413,-1.9919837 104.500091,-0.79913896 112.015152,3.90857693 C101.799806,2.46443063 89.7738279,7.3631357 86.0679846,17.7234613 L86.0679846,17.7234613 Z" id="路径" fill="url(#linearGradient-4)"></path>
                <path d="M191.548904,58.1616316 L191.548904,58.1180727 C188.986453,50.8939905 180.641257,47.4963934 173.561624,48.5418079 C178.81183,45.2782383 187.479681,44.4070596 191.548904,49.4129867 L191.548904,49.4565456 C195.621259,44.4941775 204.326702,45.3217973 209.536184,48.5853668 C202.456551,47.5801606 194.111355,50.9811084 191.548904,58.1616316 Z" id="路径" fill="url(#linearGradient-5)"></path>
            </g>
            <g id="绿植" transform="translate(0.000000, 469.157511)">
                <path d="M53.4579208,97.7847305 C18.7211621,88.9919949 5.51519106,98.6448032 13.8400076,126.743156 C17.2768648,135.307054 21.6179554,140.267707 26.8632792,141.625117 C42.2267921,154.803478 51.0916726,165.971312 53.4579208,175.128619 C57.0072929,188.86458 70.6197469,202.733737 96.1649191,188.931178 C113.195034,179.729472 127.390936,187.611424 138.752626,212.577035 C163.918858,236.006441 201.646652,240.485951 251.936008,226.015566 C302.225365,211.545181 294.797427,188.486591 229.652195,156.839796 C212.849853,153.406508 200.181906,151.689865 191.648355,151.689865 C183.114804,151.689865 177.463354,143.374295 174.694005,126.743156 C172.893304,116.34828 164.032796,110.087373 148.11248,107.960436 C132.192164,105.833499 124.547998,99.3505574 125.179981,88.5116107 C112.58823,75.545727 100.290346,75.545727 88.2863266,88.5116107 C76.2823076,101.477494 64.672839,104.568534 53.4579208,97.7847305 Z" id="路径-61" fill="url(#linearGradient-6)" transform="translate(148.112480, 156.545047) rotate(10.000000) translate(-148.112480, -156.545047)"></path>
                <path d="M128.357876,61.8772723 L139.708518,118.792492 C147.102266,107.926046 152.423641,98.4478044 155.672643,90.3577665 C160.484426,78.3763885 149.169419,111.841061 140.173455,121.127486 L149.63639,168.578733 C149.645965,168.513344 149.656389,168.449987 149.667663,168.388661 C162.67777,156.94852 170.895007,148.098659 174.319374,141.839075 C173.679437,146.283538 157.476925,166.540868 150.225374,171.539333 L158.930067,215.183483 C158.957143,214.862431 158.980375,214.651495 158.980375,214.651495 C158.980375,214.651495 170.424065,205.903486 174.319374,199.624769 C174.068987,202.241567 164.305398,213.580138 159.442775,217.757845 L166.625116,253.775222 L161.152021,253.775222 L154.642076,215.683175 C145.056775,213.216902 136.254724,205.490142 132.63269,201.122197 C140.695168,207.831691 147.787135,211.53314 153.908592,212.226545 C154.031116,213.306678 154.243439,214.271485 154.545563,215.120968 L136.214888,107.844899 C136.198618,108.140956 136.168439,108.434419 136.12435,108.725288 C125.50581,100.730628 117.714835,91.8155981 112.751425,81.9801986 C114.522037,81.3968589 119.762198,95.8303018 135.848668,105.71297 L128.357876,61.8772723 Z M103.238822,145.449865 C110.476935,153.117211 124.487041,158.514569 145.269141,161.641939 C145.199057,162.54413 145.199057,163.589954 145.269141,164.779412 C125.05606,162.407149 109.416656,153.794333 103.238822,145.449865 Z" id="形状结合" fill="url(#linearGradient-7)" transform="translate(138.779098, 157.826247) rotate(-45.000000) translate(-138.779098, -157.826247)"></path>
                <path d="M100.496525,13.1192019 C68.3285506,-8.77204952 53.4010573,-3.26680461 55.7140452,29.6349366 C61.9026183,53.2030454 65.9619965,68.9582926 63.9323074,83.4041721 C61.9026183,97.8500517 68.2472324,125.149784 100.496525,136.352578 C121.996053,143.821106 128.034527,154.418116 118.611946,168.143606 C113.881324,189.217665 139.9571,204.343139 196.839274,213.520027 C282.162536,227.285361 261.833383,195.652719 239.897382,161.364899 C224.027229,145.480093 221.903337,135.784371 221.903337,123.644346 C221.903337,111.504321 233.51901,91.6604587 200.14408,83.4041721 C185.486559,80.0715009 177.801522,65.4135325 177.088969,39.4302669 C174.782644,26.3698265 160.791703,23.1047164 135.116145,29.6349366 C123.694555,31.8301289 112.154681,26.324884 100.496525,13.1192019 Z" id="路径-65" fill="url(#linearGradient-8)"></path>
                <path d="M132.265793,14.8667685 L144.366738,70.8957685 L144.50287,70.7771673 C152.074817,64.0828933 156.911496,55.9518327 159.012906,46.3839853 L159.077738,46.0747685 L159.072047,46.1190409 C157.984672,53.6751711 158.206027,63.4270148 144.96281,73.6504051 L155.214738,121.128769 L155.507784,120.971226 C164.596231,115.963306 172.1694,107.249088 178.227291,94.8285717 C177.584791,99.2908322 168.96993,117.022913 155.89698,124.283812 L164.982203,166.350593 C167.636591,164.741196 174.635034,159.979484 178.227291,152.614266 C176.551091,158.07617 173.285119,164.909693 165.6606,169.489893 L179.068008,231.572551 L173.470997,228.842707 L161.516396,166.766296 C141.554906,165.760351 133.721891,158.288622 130.145364,153.975556 C138.030824,160.537738 148.268673,163.661789 160.858911,163.34771 L151.768386,116.140769 C151.776756,116.474589 151.791551,116.821578 151.812772,117.181736 C131.599691,114.809472 113.324572,106.78383 107.146738,98.4393607 C114.384851,106.106707 129.273529,111.308341 151.812772,114.044263 L151.353738,113.987769 L141.225572,61.3832515 C141.208927,61.565688 141.186929,61.7471264 141.159578,61.9275666 C128.078098,56.5155778 119.911352,47.5296205 116.659341,34.9696948 C118.427873,34.3870402 120.784183,50.1179685 140.745474,58.903355 L132.265793,14.8667685 Z" id="形状结合" fill="url(#linearGradient-9)" transform="translate(143.107373, 123.219660) rotate(-26.000000) translate(-143.107373, -123.219660)"></path>
                <path d="M210.126368,14.594686 C222.545375,-2.66511618 233.662578,-0.913530277 243.477977,19.8494437 C248.236888,37.7903021 240.72244,49.1966794 265.298493,57.3519642 C281.682529,62.7888208 284.161791,74.1716616 272.736279,91.5004868 C267.964121,102.404197 271.489923,109.373709 283.313684,112.409024 C295.137446,115.444338 293.715218,127.517382 279.046999,148.628157 C273.962442,160.201369 273.962442,167.934544 279.046999,171.827682 C286.673836,177.66739 301.328876,195.179148 283.313684,229.219126 C265.298493,263.259105 222.853604,236.822667 216.489986,220.818047 C210.126368,204.813427 222.853604,182.767143 216.489986,171.827682 C210.126368,160.888221 173.02471,157.12147 182.93685,124.310978 C191.186456,110.887444 202.671075,107.007173 191.140868,84.150088 C179.610661,61.2930028 176.683549,70.4768325 191.140868,47.9608957 C197.453469,41.4908822 203.781969,30.3688123 210.126368,14.594686 Z" id="路径-96" fill="url(#linearGradient-10)"></path>
                <path d="M227.031254,44.3491751 L238.381895,101.264395 C245.775644,90.397949 251.097019,80.9197072 254.34602,72.8296692 C259.157803,60.8482913 247.842797,94.3129634 238.846832,103.599388 L248.309767,151.050636 C248.319342,150.985247 248.329766,150.92189 248.34104,150.860564 C261.351147,139.420423 269.568384,130.570561 272.992752,124.310978 C272.352814,128.755441 256.150302,149.012771 248.898751,154.011236 L257.603444,197.655386 C257.63052,197.334334 257.653752,197.123397 257.653752,197.123397 C257.653752,197.123397 269.097442,188.375389 272.992752,182.096672 C272.742365,184.713469 262.978776,196.05204 258.116152,200.229748 L265.298493,236.247125 L259.825398,236.247125 L253.315454,198.155078 C243.730152,195.688804 234.928101,187.962045 231.306067,183.594099 C239.368545,190.303594 246.460512,194.005043 252.581969,194.698448 C252.704493,195.778581 252.916816,196.743388 253.21894,197.592871 L234.888265,90.3168021 C234.871996,90.6128587 234.841816,90.9063217 234.797727,91.1971908 C224.179187,83.2025307 216.388212,74.2875009 211.424802,64.4521014 C213.195414,63.8687616 218.435575,78.3022046 234.522045,88.1848725 L227.031254,44.3491751 Z M201.912199,127.921767 C209.150312,135.589113 223.160419,140.986472 243.942519,144.113842 C243.872435,145.016033 243.872435,146.061857 243.942519,147.251315 C223.729438,144.879052 208.090033,136.266236 201.912199,127.921767 Z" id="形状结合" fill="url(#linearGradient-7)"></path>
            </g>
            <g id="石头" transform="translate(906.925399, 613.000000)">
                <path d="M42.3959886,49.5164474 C45.3020221,27.3131416 37.8366926,15.351725 20,13.6321975 C44.1424324,11.3251757 60.1235326,26.0173187 60.3823024,49.5164474 C55.3770448,49.6908524 49.3816069,49.6908524 42.3959886,49.5164474 Z" id="路径-38" fill="url(#linearGradient-11)"></path>
                <path d="M54.120901,49.6472512 C58.8339305,27.2411086 53.0371808,10.6920249 36.7306519,0 C57.5522392,6.56657635 72.5106644,16.4351231 77.3732031,49.6472512 C71.0188781,50.1175829 63.2681108,50.1175829 54.120901,49.6472512 Z" id="路径-39" fill="url(#linearGradient-12)"></path>
                <path d="M81.0677818,50 C78.9833933,28.7044584 86.627466,16.502709 104,13.3947519 C87.886355,12.9867807 69.9112687,11.9056548 57.0519275,50 C67.9497157,49.6502805 75.9550005,49.6502805 81.0677818,50 Z" id="路径-40" fill="url(#linearGradient-13)"></path>
                <path d="M31.4123189,63.9990036 C48.2570038,63.9990036 61,64.4087768 61,48.6086537 C61,32.8085305 47.3446849,20 30.5,20 C13.6553151,20 0,32.8085305 0,48.6086537 C0,64.4087768 14.567634,63.9990036 31.4123189,63.9990036 Z" id="椭圆形" fill="url(#linearGradient-14)"></path>
                <path d="M64.5683298,63.9993886 C75.0617401,63.9993886 83,64.2508403 83,54.5553102 C83,44.8597801 74.4934102,37 64,37 C53.5065898,37 45,44.8597801 45,54.5553102 C45,64.2508403 54.0749196,63.9993886 64.5683298,63.9993886 Z" id="椭圆形备份-6" fill="url(#linearGradient-15)"></path>
            </g>
        </g>
        <path d="M775.52111,769.313466 C730.074751,779.34381 750.25182,782.254514 767.288559,785.291246 C798.57049,790.867129 787.503424,798.252058 774.549081,805.226342 C755.376288,815.54848 598.687065,847.661367 416.26578,840.992618 C246.159857,834.786597 261.788318,802.626891 300.006096,785.995845 C330.794498,772.631126 472.019561,737.654213 643.865699,731.978971 C747.274572,728.549328 793.724901,733.857108 804.166185,739.600399 C821.434463,749.113575 826.12118,758.139907 775.52111,769.313466 Z" id="路径" fill="url(#linearGradient-16)" fill-rule="nonzero" opacity="0.4" transform="translate(545.619289, 786.395663) scale(-1, 1) rotate(4.000000) translate(-545.619289, -786.395663)"></path>
        <path d="M673.52511,594.339988 C675.879328,621.489559 679.773003,639.064927 685.206134,647.066092 C686.163974,645.81041 687.267846,644.563518 688.517751,643.325416 L686.938854,649.2843 C711.331964,688.53185 739.714296,715.893239 772.085851,731.368469 C785.029265,735.545489 826.914217,756.462965 807.449002,707.172716 C794.472193,674.31255 769.882602,645.848012 733.680231,621.779101 L725.825233,621.779101 L729.378152,617.383267 C723.28478,610.787219 716.396163,605.316 708.712302,600.969609 C707.736703,602.209951 706.206174,603.431618 704.120715,604.634609 L704.473503,597.929643 L673.52511,594.339988 Z" id="路径-78" fill="url(#linearGradient-17)" fill-rule="nonzero" transform="translate(743.025110, 666.839988) scale(-1, 1) translate(-743.025110, -666.839988)"></path>
        <path d="M731.056803,726.798042 C717.760144,734.816684 710.250547,732.439602 708.528012,719.666795 C705.944209,700.507584 703.710262,700.382476 689.683393,697.255034 C675.656524,694.127591 679.246578,680.793819 689.683393,680.653985 C696.64127,680.560762 705.962583,682.199849 717.647332,685.571245 C728.196649,688.963395 732.666473,687.324308 731.056803,680.653985 C728.642298,670.6485 719.931185,662.635124 731.056803,664.331269 C742.18242,666.027414 758.442821,686.488597 761.79534,697.255034 C764.030353,704.432659 768.081422,705.763938 773.948548,701.248871 L773.948548,680.653985 C775.783671,666.642027 782.825183,673.506989 795.073084,701.248871 C804.662558,715.40943 810.251989,718.403937 811.841377,710.232392 C820.556702,693.643304 838.368462,705.157173 865.276659,744.773998 C892.184856,784.390824 870.538042,795.526387 800.336215,778.180688 C794.787598,770.077661 787.49574,765.854832 778.46064,765.512201 C764.90799,764.998256 750.839724,764.035953 751.355582,744.773998 C751.699488,731.932695 744.933228,725.94071 731.056803,726.798042 Z" id="路径-79" fill="url(#linearGradient-18)" fill-rule="nonzero" transform="translate(778.460640, 725.103615) scale(-1, 1) translate(-778.460640, -725.103615)"></path>
        <g id="银行卡管理" transform="translate(366.000000, 542.000000)">
            <rect id="矩形备份" fill="url(#linearGradient-19)" fill-rule="nonzero" x="0" y="0" width="391" height="252" rx="16"></rect>
            <rect id="矩形备份-2" fill="#98D6FA" x="0" y="44" width="391" height="43"></rect>
            <rect id="矩形备份-3" fill="#98D6FA" x="22" y="109" width="195" height="43"></rect>
            <rect id="矩形备份-4" fill="#98D6FA" x="240" y="109" width="130" height="43"></rect>
            <rect id="矩形备份-5" fill="#98D6FA" x="109" y="179" width="261" height="13"></rect>
            <rect id="矩形备份-6" fill="#98D6FA" x="174" y="209" width="195" height="13"></rect>
        </g>
        <g id="人物" transform="translate(468.056858, 344.586377)">
            <path d="M44.9314337,203.616098 C45.0264818,207.223676 44.2185726,209.027465 45.3947934,210.778202 C46.5710142,212.528938 51.457804,214.138067 53.8381159,212.954072 C56.8557481,211.453066 61.8964703,208.528784 63.331736,207.73627 C64.7670017,206.943756 74.49752,201.244026 74.7409094,197.650625 C74.9842987,194.057224 69.3469269,192.990096 62.699497,195.483569 C56.0520671,197.977043 46.7967536,202.360519 46.7967536,202.360519 L44.9314337,203.616098 Z" id="路径" fill="#333333" fill-rule="nonzero" transform="translate(59.748508, 203.743159) scale(-1, 1) rotate(59.000000) translate(-59.748508, -203.743159)"></path>
            <path d="M63.9314337,313.616098 C64.0264818,317.223676 63.2185726,319.027465 64.3947934,320.778202 C65.5710142,322.528938 70.457804,324.138067 72.8381159,322.954072 C75.8557481,321.453066 80.8964703,318.528784 82.331736,317.73627 C83.7670017,316.943756 93.49752,311.244026 93.7409094,307.650625 C93.9842987,304.057224 88.3469269,302.990096 81.699497,305.483569 C75.0520671,307.977043 65.7967536,312.360519 65.7967536,312.360519 L63.9314337,313.616098 Z" id="路径" fill="#333333" fill-rule="nonzero" transform="translate(78.748508, 313.743159) scale(-1, 1) rotate(59.000000) translate(-78.748508, -313.743159)"></path>
            <path d="M97.750505,149.282951 C80.5799639,191.001192 73.8976832,252.856174 78.2206759,297.377432 C78.5136233,300.426672 78.8798076,303.578696 80.527637,306.239643 C82.1754663,308.90059 85.4100942,310.910576 88.6203099,310.305296 C92.0868546,309.642915 94.1496928,306.388108 95.7731098,303.453072 C108.613972,280.224029 97.4269011,275.771929 134.32011,216.788786 C144.857052,202.70822 145.314214,198.120942 148.023977,188.413623 C150.733741,178.706304 149.968386,168.834632 145.708442,159.62981 C141.338642,150.17374 132.672281,143.104528 126.801126,134.413623" id="路径" fill="url(#linearGradient-20)" fill-rule="nonzero"></path>
            <path d="M91.8926291,140.337693 C80.3381955,126.828688 63.4987077,118.2709 45.1712409,116.593994 C36.7028381,115.853073 27.0246634,117.232327 22.1855761,123.786637 C19.270026,127.753419 18.7619218,132.905676 18.9917785,137.670374 C19.5966644,150.391434 24.7139992,162.690738 32.2992686,173.257425 C39.884538,183.824112 49.719983,192.749372 60.3417797,200.614543 C62.0288452,201.679983 64.2317624,201.679983 65.9188278,200.614543 C67.4645338,199.508859 68.602818,197.973836 69.1731141,196.226005 C71.3144102,190.526606 69.6449251,184.211671 67.672997,178.443879 C66.6648538,175.525786 65.5881569,172.630491 64.4429062,169.757994 C63.3420138,166.999484 62.0233625,164.138386 59.6038189,162.348774 C67.6246061,172.060551 76.1655953,181.589947 88.0213592,186.742204 C90.6989875,176.772055 93.3685507,166.798106 96.0300487,156.820357 C96.7317164,154.187234 97.4333841,151.360332 96.4776643,148.841197 C95.1348176,145.227778 90.7191504,142.777036 90.6102709,138.94704" id="路径" fill="url(#linearGradient-21)" fill-rule="nonzero"></path>
            <path d="M81.996807,60.1347775 C84.9800992,55.3369256 86.1960382,48.1401477 84.6831839,44.4147568 C83.1703295,40.689366 78.6034888,21.2086761 93.7178936,15.6558681 C108.832298,10.1030601 120.659426,22.9725922 118.093229,37.8953228 C115.527032,52.8180533 114.000039,61.0872922 110.034099,61.6164671 C106.068158,62.1456419 104.49591,67.3058366 103.626372,70.4597187 C102.756834,73.6136007 85.9627476,64.4387329 85.9627476,64.4387329 L81.996807,63.1404906 L81.996807,60.1347775 Z" id="路径" fill="#EBB0B0" fill-rule="nonzero" transform="translate(100.220744, 42.728842) scale(-1, 1) rotate(-5.000000) translate(-100.220744, -42.728842)"></path>
            <path d="M112.411267,2.08904642 C127.251614,4.05178403 124.804435,16.8622067 120.830521,23.6371527 C116.856607,30.4120986 116.650447,28.1514357 111.162323,31.567079 C111.162323,31.567079 110.278874,30.1976368 108.7931,39.6910121 L106.139241,40.5243249 C105.151094,40.7848997 106.541493,38.518089 105.133917,37.3138106 C103.726341,36.1095323 99.0273117,39.130792 100.854317,43.35633 C102.681322,47.581868 102.667104,46.3846322 102.667104,46.3846322 C102.667104,46.3846322 98.8993502,50.6524256 96.7026786,49.9059139 C94.506007,49.1594022 82.2306528,48.2526097 81.6832621,44.4496255 C81.1358714,40.6466413 77.1986953,36.2067003 77.9806819,26.0090686 C78.7626686,15.8114369 90.3014844,6.01452164 97.0154733,4.05178403 C103.729462,2.08904642 108.707691,1.59922298 112.411267,2.08904642 Z" id="路径" fill="#131322" fill-rule="nonzero" transform="translate(100.870528, 25.952990) scale(-1, 1) rotate(-5.000000) translate(-100.870528, -25.952990)"></path>
            <polygon id="矩形" fill="#000000" transform="translate(13.165901, 65.220203) rotate(47.000000) translate(-13.165901, -65.220203)" points="-4.26929029 63.4766841 30.6010926 63.4766841 30.6010926 66.9637224 -4.26929029 66.9637224"></polygon>
            <path d="M26.1544721,66.3483726 C19.5106809,69.5372929 14.2175666,74.6941173 11.123024,80.9927833 C10.065111,82.7816493 9.70372254,84.8517704 10.0992474,86.8572244 L11.3036904,87.413623 C14.7604417,86.7014328 14.0859536,81.1930868 17.5788382,80.6144323 C16.9652047,82.521975 16.5181279,84.4719105 16.2419065,86.4454895 C19.6085343,84.803296 22.5664631,82.5290708 24.9259403,79.7687065 C28.2188514,75.6462275 29.5696502,70.4695663 28.6717579,65.413623" id="路径" fill="#FFDCC5" fill-rule="nonzero" transform="translate(19.443142, 76.413623) scale(1, -1) translate(-19.443142, -76.413623)"></path>
            <path d="M96.952029,94.6365493 L60.7163352,104.622768 L48.3437519,68.0503975 C45.2275205,60.862393 39.7554764,57.8408422 31.9276195,58.9857449 C26.3681797,61.5339188 21.7519045,65.8515093 21.3343879,77.3337603 C21.7586533,83.0826202 30.1373486,101.146001 40.1887645,117.058267 C44.7007518,122.772082 51.3938733,125.519348 60.4993933,123.189414 C65.2024389,121.581035 78.8429187,115.816681 101.420833,105.896354 L96.952029,94.6365493 Z" id="路径-3" fill="url(#linearGradient-22)" fill-rule="nonzero" transform="translate(61.377610, 91.384313) scale(-1, 1) rotate(-30.000000) translate(-61.377610, -91.384313)"></path>
            <path d="M91.9431421,69.413623 C95.2764754,71.9513432 103.276475,68.2870608 115.943142,58.4207758 C125.877948,66.7802886 145.475253,61.5485506 152.818469,116.413623 C156.020884,141.826442 157.676204,160.860821 144.117289,167.413623 C129.677429,169.413623 84.6444221,185.377358 77.0051095,141.923023 C69.8466796,115.669794 74.8260237,91.4999943 91.9431421,69.413623 Z" id="路径-4" fill="url(#linearGradient-23)" fill-rule="nonzero"></path>
            <path d="M90.4431421,181.922692 C86.870191,185.916646 84.5602865,188.413623 83.5134288,189.413623 C81.9431421,190.913623 85.0134288,190.913623 86.9782854,190.913623 C85.0375198,191.637157 85.5158578,198.413623 87.9794999,199.413623 C90.4431421,200.413623 96.084193,203.133956 97.9066672,200.413623 C99.12165,198.600067 99.8171244,193.373753 99.9930904,184.73468 L90.4431421,181.922692 Z" id="路径-5" fill="#EFBA9E" fill-rule="nonzero" transform="translate(91.537287, 191.755653) rotate(18.000000) translate(-91.537287, -191.755653)"></path>
            <path d="M131.467959,154.939606 C126.614373,167.455879 119.770818,180.484182 107.200033,186.628534 C102.528457,188.90422 95.6606338,189.541412 93.0032959,185.285879 C92.0524725,183.458147 91.7302468,181.398675 92.0811147,179.391853 C93.294511,167.922395 101.290793,158.182459 105.173661,147.259166 C110.027246,133.605049 104.275748,118.605134 105.173661,104.21142 C105.586216,97.5777951 107.141447,90.2948816 111.072851,84.7877214 C115.004255,79.2805612 124.648671,77.3172666 131.467959,79.1605723 C155.024609,91.0070689 140.968852,129.97533 131.467959,154.939606 Z" id="路径" fill="url(#linearGradient-24)" fill-rule="nonzero"></path>
        </g>
    </g>
</svg>